<svg width="50" height="50" viewBox="0 0 50 50" fill="none" xmlns="http://www.w3.org/2000/svg">
<circle cx="25" cy="25" r="25" fill="white"/>
<path fill-rule="evenodd" clip-rule="evenodd" d="M17.2239 9.875C13.1652 9.875 9.875 13.1652 9.875 17.2239V32.9217C9.875 36.9804 13.1652 40.2707 17.2239 40.2707H32.9217C36.9804 40.2707 40.2707 36.9804 40.2707 32.9217V17.2239C40.2707 13.1652 36.9804 9.875 32.9217 9.875H17.2239ZM8.875 17.2239C8.875 12.6129 12.6129 8.875 17.2239 8.875H32.9217C37.5327 8.875 41.2707 12.6129 41.2707 17.2239V32.9217C41.2707 37.5327 37.5327 41.2707 32.9217 41.2707H17.2239C12.6129 41.2707 8.875 37.5327 8.875 32.9217V17.2239ZM25.9887 19.288C24.7863 19.1097 23.5582 19.3151 22.4793 19.8749C21.4003 20.4348 20.5254 21.3206 19.9789 22.4064C19.4324 23.4922 19.2421 24.7226 19.4352 25.9227C19.6284 27.1229 20.195 28.2315 21.0545 29.0911C21.9141 29.9506 23.0227 30.5172 24.2229 30.7104C25.423 30.9035 26.6534 30.7132 27.7392 30.1667C28.825 29.6202 29.7108 28.7453 30.2707 27.6663C30.8305 26.5874 31.0359 25.3593 30.8576 24.1569C30.6757 22.9304 30.1042 21.7949 29.2274 20.9182C28.3507 20.0414 27.2152 19.4699 25.9887 19.288ZM22.0187 18.9873C23.2844 18.3306 24.7249 18.0897 26.1354 18.2988C27.5741 18.5122 28.9061 19.1826 29.9346 20.211C30.963 21.2395 31.6334 22.5715 31.8468 24.0102C32.0559 25.4207 31.815 26.8612 31.1583 28.1269C30.5016 29.3925 29.4625 30.4189 28.1888 31.06C26.9151 31.701 25.4718 31.9242 24.064 31.6977C22.6562 31.4711 21.3557 30.8064 20.3474 29.7982C19.3391 28.7899 18.6745 27.4894 18.4479 26.0816C18.2214 24.6738 18.4446 23.2305 19.0856 21.9568C19.7267 20.6831 20.7531 19.644 22.0187 18.9873ZM33.7066 15.939C33.4305 15.939 33.2066 16.1629 33.2066 16.439C33.2066 16.7152 33.4305 16.939 33.7066 16.939H33.7246C34.0008 16.939 34.2246 16.7152 34.2246 16.439C34.2246 16.1629 34.0008 15.939 33.7246 15.939H33.7066Z" fill="black"/>
</svg>
