<svg width="50" height="50" viewBox="0 0 50 50" fill="none" xmlns="http://www.w3.org/2000/svg">
<g clip-path="url(#clip0_5400_663)">
<circle cx="25" cy="25" r="25" fill="white"/>
<path d="M14.5833 13.5417C14.5833 12.1603 15.132 10.8356 16.1088 9.85883C17.0856 8.88208 18.4103 8.33334 19.7916 8.33334H25V18.75H19.7916C18.4103 18.75 17.0856 18.2013 16.1088 17.2245C15.132 16.2478 14.5833 14.923 14.5833 13.5417Z" stroke="black" stroke-linecap="round" stroke-linejoin="round"/>
<path d="M25 8.33334H30.2083C30.8923 8.33334 31.5696 8.46806 32.2015 8.7298C32.8334 8.99155 33.4075 9.37519 33.8912 9.85883C34.3748 10.3425 34.7585 10.9166 35.0202 11.5485C35.2819 12.1804 35.4167 12.8577 35.4167 13.5417C35.4167 14.2256 35.2819 14.9029 35.0202 15.5348C34.7585 16.1667 34.3748 16.7409 33.8912 17.2245C33.4075 17.7082 32.8334 18.0918 32.2015 18.3536C31.5696 18.6153 30.8923 18.75 30.2083 18.75H25V8.33334Z" stroke="black" stroke-linecap="round" stroke-linejoin="round"/>
<path d="M25 23.9583C25 23.2744 25.1347 22.5971 25.3965 21.9652C25.6582 21.3333 26.0418 20.7591 26.5255 20.2755C27.0091 19.7918 27.5833 19.4082 28.2152 19.1465C28.8471 18.8847 29.5244 18.75 30.2083 18.75C30.8923 18.75 31.5696 18.8847 32.2015 19.1465C32.8334 19.4082 33.4075 19.7918 33.8912 20.2755C34.3748 20.7591 34.7585 21.3333 35.0202 21.9652C35.2819 22.5971 35.4167 23.2744 35.4167 23.9583C35.4167 24.6423 35.2819 25.3196 35.0202 25.9515C34.7585 26.5834 34.3748 27.1575 33.8912 27.6412C33.4075 28.1248 32.8334 28.5085 32.2015 28.7702C31.5696 29.0319 30.8923 29.1667 30.2083 29.1667C29.5244 29.1667 28.8471 29.0319 28.2152 28.7702C27.5833 28.5085 27.0091 28.1248 26.5255 27.6412C26.0418 27.1575 25.6582 26.5834 25.3965 25.9515C25.1347 25.3196 25 24.6423 25 23.9583V23.9583Z" stroke="black" stroke-linecap="round" stroke-linejoin="round"/>
<path d="M14.5833 34.375C14.5833 32.9937 15.132 31.6689 16.1088 30.6921C17.0856 29.7154 18.4103 29.1667 19.7916 29.1667H25V34.375C25 35.7563 24.4512 37.0811 23.4745 38.0578C22.4977 39.0346 21.173 39.5833 19.7916 39.5833C18.4103 39.5833 17.0856 39.0346 16.1088 38.0578C15.132 37.0811 14.5833 35.7563 14.5833 34.375Z" stroke="black" stroke-linecap="round" stroke-linejoin="round"/>
<path d="M14.5833 23.9583C14.5833 22.577 15.132 21.2522 16.1088 20.2755C17.0856 19.2987 18.4103 18.75 19.7916 18.75H25V29.1667H19.7916C18.4103 29.1667 17.0856 28.6179 16.1088 27.6412C15.132 26.6644 14.5833 25.3397 14.5833 23.9583Z" stroke="black" stroke-linecap="round" stroke-linejoin="round"/>
</g>
<defs>
<clipPath id="clip0_5400_663">
<rect width="50" height="50" fill="white"/>
</clipPath>
</defs>
</svg>
