<svg width="24" height="25" viewBox="0 0 24 25" fill="none" xmlns="http://www.w3.org/2000/svg">
<g clip-path="url(#clip0_5400_1070)">
<path d="M5 6.18457C5 5.25631 5.36875 4.36607 6.02513 3.7097C6.6815 3.05332 7.57174 2.68457 8.5 2.68457H12V9.68457H8.5C7.57174 9.68457 6.6815 9.31582 6.02513 8.65944C5.36875 8.00307 5 7.11283 5 6.18457Z" stroke="white" stroke-linecap="round" stroke-linejoin="round"/>
<path d="M12 2.68457H15.5C15.9596 2.68457 16.4148 2.7751 16.8394 2.95099C17.264 3.12688 17.6499 3.38469 17.9749 3.7097C18.2999 4.0347 18.5577 4.42054 18.7336 4.84518C18.9095 5.26982 19 5.72494 19 6.18457C19 6.6442 18.9095 7.09932 18.7336 7.52396C18.5577 7.9486 18.2999 8.33444 17.9749 8.65944C17.6499 8.98445 17.264 9.24226 16.8394 9.41815C16.4148 9.59404 15.9596 9.68457 15.5 9.68457H12V2.68457Z" stroke="white" stroke-linecap="round" stroke-linejoin="round"/>
<path d="M12 13.1846C12 12.7249 12.0905 12.2698 12.2664 11.8452C12.4423 11.4205 12.7001 11.0347 13.0251 10.7097C13.3501 10.3847 13.736 10.1269 14.1606 9.95099C14.5852 9.7751 15.0404 9.68457 15.5 9.68457C15.9596 9.68457 16.4148 9.7751 16.8394 9.95099C17.264 10.1269 17.6499 10.3847 17.9749 10.7097C18.2999 11.0347 18.5577 11.4205 18.7336 11.8452C18.9095 12.2698 19 12.7249 19 13.1846C19 13.6442 18.9095 14.0993 18.7336 14.524C18.5577 14.9486 18.2999 15.3344 17.9749 15.6594C17.6499 15.9844 17.264 16.2423 16.8394 16.4181C16.4148 16.594 15.9596 16.6846 15.5 16.6846C15.0404 16.6846 14.5852 16.594 14.1606 16.4181C13.736 16.2423 13.3501 15.9844 13.0251 15.6594C12.7001 15.3344 12.4423 14.9486 12.2664 14.524C12.0905 14.0993 12 13.6442 12 13.1846V13.1846Z" stroke="white" stroke-linecap="round" stroke-linejoin="round"/>
<path d="M5 20.1846C5 19.2563 5.36875 18.3661 6.02513 17.7097C6.6815 17.0533 7.57174 16.6846 8.5 16.6846H12V20.1846C12 21.1128 11.6313 22.0031 10.9749 22.6594C10.3185 23.3158 9.42826 23.6846 8.5 23.6846C7.57174 23.6846 6.6815 23.3158 6.02513 22.6594C5.36875 22.0031 5 21.1128 5 20.1846Z" stroke="white" stroke-linecap="round" stroke-linejoin="round"/>
<path d="M5 13.1846C5 12.2563 5.36875 11.3661 6.02513 10.7097C6.6815 10.0533 7.57174 9.68457 8.5 9.68457H12V16.6846H8.5C7.57174 16.6846 6.6815 16.3158 6.02513 15.6594C5.36875 15.0031 5 14.1128 5 13.1846Z" stroke="white" stroke-linecap="round" stroke-linejoin="round"/>
</g>
<defs>
<clipPath id="clip0_5400_1070">
<rect width="24" height="24" fill="white" transform="translate(0 0.68457)"/>
</clipPath>
</defs>
</svg>
