<svg width="24" height="25" viewBox="0 0 24 25" fill="none" xmlns="http://www.w3.org/2000/svg">
<path d="M16 22.6846V18.8146C16.0375 18.3377 15.9731 17.8584 15.811 17.4084C15.6489 16.9583 15.3929 16.548 15.06 16.2046C18.2 15.8546 21.5 14.6646 21.5 9.20457C21.4997 7.8084 20.9627 6.46577 20 5.45457C20.4559 4.23308 20.4236 2.88292 19.91 1.68457C19.91 1.68457 18.73 1.33457 16 3.16457C13.708 2.54339 11.292 2.54339 9 3.16457C6.27 1.33457 5.09 1.68457 5.09 1.68457C4.57638 2.88292 4.54414 4.23308 5 5.45457C4.03013 6.47327 3.49252 7.82803 3.5 9.23457C3.5 14.6546 6.8 15.8446 9.94 16.2346C9.611 16.5745 9.35726 16.98 9.19531 17.4245C9.03335 17.869 8.96681 18.3426 9 18.8146V22.6846M9 19.6846C4 21.1846 4 17.1846 2 16.6846L9 19.6846Z" stroke="white" stroke-linecap="round" stroke-linejoin="round"/>
</svg>
