<svg width="22" height="23" viewBox="0 0 22 23" fill="none" xmlns="http://www.w3.org/2000/svg">
<path fill-rule="evenodd" clip-rule="evenodd" d="M5.7619 1.70837C3.14512 1.70837 1.0238 3.82969 1.0238 6.44647V16.9227C1.0238 19.5394 3.14512 21.6608 5.7619 21.6608H16.2381C18.8549 21.6608 20.9762 19.5394 20.9762 16.9227V6.44647C20.9762 3.82969 18.8549 1.70837 16.2381 1.70837H5.7619ZM0.0238037 6.44647C0.0238037 3.27741 2.59284 0.708374 5.7619 0.708374H16.2381C19.4072 0.708374 21.9762 3.27741 21.9762 6.44647V16.9227C21.9762 20.0917 19.4072 22.6608 16.2381 22.6608H5.7619C2.59284 22.6608 0.0238037 20.0917 0.0238037 16.9227V6.44647ZM11.5866 7.98848C10.8188 7.87462 10.0346 8.00578 9.34559 8.36329C8.65658 8.72081 8.09785 9.28647 7.74886 9.97984C7.39986 10.6732 7.27839 11.459 7.40171 12.2253C7.52503 12.9917 7.88687 13.6997 8.43576 14.2486C8.98464 14.7975 9.69263 15.1593 10.459 15.2826C11.2254 15.406 12.0112 15.2845 12.7045 14.9355C13.3979 14.5865 13.9636 14.0278 14.3211 13.3388C14.6786 12.6498 14.8097 11.8656 14.6959 11.0977C14.5797 10.3145 14.2148 9.58937 13.6549 9.02948C13.095 8.4696 12.3699 8.10463 11.5866 7.98848ZM8.88502 7.47567C9.76073 7.02128 10.7574 6.85459 11.7333 6.9993C12.7288 7.14692 13.6504 7.61078 14.362 8.32237C15.0736 9.03397 15.5374 9.95556 15.6851 10.951C15.8298 11.9269 15.6631 12.9236 15.2087 13.7993C14.7543 14.675 14.0354 15.3852 13.1541 15.8287C12.2729 16.2723 11.2742 16.4267 10.3001 16.2699C9.32609 16.1132 8.42627 15.6533 7.72865 14.9557C7.03103 14.2581 6.57115 13.3583 6.41441 12.3842C6.25767 11.4102 6.41206 10.4115 6.85562 9.53025C7.29918 8.649 8.00931 7.93006 8.88502 7.47567ZM16.7619 5.42266C16.4858 5.42266 16.2619 5.64652 16.2619 5.92266C16.2619 6.1988 16.4858 6.42266 16.7619 6.42266H16.7719C17.048 6.42266 17.2719 6.1988 17.2719 5.92266C17.2719 5.64652 17.048 5.42266 16.7719 5.42266H16.7619Z" fill="white"/>
</svg>
