<svg width="116" height="27" viewBox="0 0 116 27" fill="none" xmlns="http://www.w3.org/2000/svg">
<line x1="2" y1="5.68457" x2="2" y2="21.6846" stroke="url(#paint0_linear_5400_1071)" stroke-width="4" stroke-linecap="round"/>
<line x1="12" y1="7.68457" x2="12" y2="19.6846" stroke="url(#paint1_linear_5400_1071)" stroke-width="4" stroke-linecap="round"/>
<line x1="22" y1="9.68457" x2="22" y2="17.6846" stroke="url(#paint2_linear_5400_1071)" stroke-width="4" stroke-linecap="round"/>
<path d="M40.8389 17.8389C40.8389 17.4092 40.7673 17.026 40.624 16.6895C40.4808 16.3529 40.2445 16.0521 39.915 15.7871C39.5928 15.515 39.1559 15.2643 38.6045 15.0352C38.0602 14.7988 37.3799 14.5661 36.5635 14.3369C35.7829 14.1149 35.0775 13.8714 34.4473 13.6064C33.8171 13.3415 33.2764 13.0371 32.8252 12.6934C32.3812 12.3496 32.041 11.9486 31.8047 11.4902C31.5684 11.0247 31.4502 10.484 31.4502 9.86816C31.4502 9.2666 31.5791 8.71875 31.8369 8.22461C32.0947 7.73047 32.4564 7.30436 32.9219 6.94629C33.3945 6.58822 33.9495 6.3125 34.5869 6.11914C35.2314 5.92578 35.9368 5.8291 36.7031 5.8291C37.7988 5.8291 38.7441 6.03678 39.5391 6.45215C40.3411 6.86751 40.9606 7.42969 41.3975 8.13867C41.8415 8.84049 42.0635 9.62826 42.0635 10.502H40.7422C40.7422 9.82161 40.5811 9.21647 40.2588 8.68652C39.9437 8.14941 39.4854 7.73047 38.8838 7.42969C38.2894 7.12174 37.5625 6.96777 36.7031 6.96777C35.8438 6.96777 35.1204 7.10026 34.5332 7.36523C33.9531 7.62305 33.5127 7.97038 33.2119 8.40723C32.9183 8.83691 32.7715 9.31673 32.7715 9.84668C32.7715 10.2191 32.8431 10.5628 32.9863 10.8779C33.1296 11.1859 33.3623 11.4759 33.6846 11.748C34.014 12.013 34.4473 12.2637 34.9844 12.5C35.5215 12.7292 36.1839 12.9476 36.9717 13.1553C37.8024 13.3844 38.54 13.6387 39.1846 13.918C39.8291 14.1973 40.3734 14.5195 40.8174 14.8848C41.2614 15.2428 41.598 15.6618 41.8271 16.1416C42.0563 16.6214 42.1709 17.18 42.1709 17.8174C42.1709 18.4548 42.0348 19.0277 41.7627 19.5361C41.4977 20.0374 41.1217 20.4635 40.6348 20.8145C40.1549 21.1654 39.5856 21.4339 38.9268 21.6201C38.2751 21.8063 37.5625 21.8994 36.7891 21.8994C36.0944 21.8994 35.4033 21.8099 34.7158 21.6309C34.0283 21.4518 33.3981 21.1761 32.8252 20.8037C32.2594 20.4242 31.8047 19.9372 31.4609 19.3428C31.1243 18.7484 30.9561 18.0394 30.9561 17.2158H32.2666C32.2666 17.8747 32.3991 18.4297 32.6641 18.8809C32.929 19.332 33.2799 19.6973 33.7168 19.9766C34.1608 20.2559 34.6478 20.46 35.1777 20.5889C35.7148 20.7106 36.252 20.7715 36.7891 20.7715C37.6126 20.7715 38.3252 20.6497 38.9268 20.4062C39.5355 20.1628 40.0046 19.8226 40.334 19.3857C40.6706 18.9417 40.8389 18.4261 40.8389 17.8389ZM46.1562 10.0615V21.6846H44.8779V10.0615H46.1562ZM44.6523 6.69922C44.6523 6.45573 44.7275 6.25163 44.8779 6.08691C45.0355 5.91504 45.2503 5.8291 45.5225 5.8291C45.7946 5.8291 46.0094 5.91504 46.167 6.08691C46.3317 6.25163 46.4141 6.45573 46.4141 6.69922C46.4141 6.93555 46.3317 7.13965 46.167 7.31152C46.0094 7.47624 45.7946 7.55859 45.5225 7.55859C45.2503 7.55859 45.0355 7.47624 44.8779 7.31152C44.7275 7.13965 44.6523 6.93555 44.6523 6.69922ZM54.0625 10.0615V11.1143H48.2402V10.0615H54.0625ZM50.3779 7.0752H51.6562V18.8594C51.6562 19.3965 51.7279 19.8011 51.8711 20.0732C52.0143 20.3454 52.2005 20.528 52.4297 20.6211C52.6589 20.7142 52.9059 20.7607 53.1709 20.7607C53.3643 20.7607 53.5505 20.75 53.7295 20.7285C53.9085 20.6999 54.0697 20.6712 54.2129 20.6426L54.2666 21.7275C54.109 21.7777 53.9049 21.8171 53.6543 21.8457C53.4036 21.8815 53.153 21.8994 52.9023 21.8994C52.4082 21.8994 51.9714 21.8099 51.5918 21.6309C51.2122 21.4447 50.915 21.1296 50.7002 20.6855C50.4854 20.2344 50.3779 19.6221 50.3779 18.8486V7.0752ZM61.249 21.8994C60.4899 21.8994 59.7917 21.7598 59.1543 21.4805C58.5241 21.2012 57.9727 20.8073 57.5 20.2988C57.0345 19.7904 56.6729 19.1888 56.415 18.4941C56.1644 17.7923 56.0391 17.026 56.0391 16.1953V15.7334C56.0391 14.8382 56.1715 14.029 56.4365 13.3057C56.7015 12.5824 57.0667 11.9629 57.5322 11.4473C57.9977 10.9316 58.5277 10.5378 59.1221 10.2656C59.7236 9.98633 60.3538 9.84668 61.0127 9.84668C61.7503 9.84668 62.4056 9.97917 62.9785 10.2441C63.5514 10.502 64.0312 10.8708 64.418 11.3506C64.8118 11.8232 65.109 12.3854 65.3096 13.0371C65.5101 13.6816 65.6104 14.3942 65.6104 15.1748V15.959H56.8125V14.8633H64.332V14.7129C64.3177 14.0612 64.1852 13.4525 63.9346 12.8867C63.6911 12.3138 63.3258 11.8483 62.8389 11.4902C62.3519 11.1322 61.7432 10.9531 61.0127 10.9531C60.4684 10.9531 59.9671 11.0677 59.5088 11.2969C59.0576 11.526 58.6673 11.8555 58.3379 12.2852C58.0156 12.7077 57.765 13.2126 57.5859 13.7998C57.4141 14.3799 57.3281 15.0244 57.3281 15.7334V16.1953C57.3281 16.8398 57.4212 17.4414 57.6074 18C57.8008 18.5514 58.0729 19.0384 58.4238 19.4609C58.7819 19.8835 59.2044 20.2129 59.6914 20.4492C60.1784 20.6855 60.7155 20.8037 61.3027 20.8037C61.9902 20.8037 62.599 20.6784 63.1289 20.4277C63.6589 20.1699 64.1351 19.7653 64.5576 19.2139L65.3633 19.8369C65.1126 20.2093 64.7975 20.5531 64.418 20.8682C64.0456 21.1833 63.598 21.4339 63.0752 21.6201C62.5524 21.8063 61.9437 21.8994 61.249 21.8994ZM77.8457 19.5469V21.6846H69.9932V19.5469H77.8457ZM70.7451 6.04395V21.6846H68.0488V6.04395H70.7451ZM79.1777 16.002V15.7549C79.1777 14.917 79.2995 14.14 79.543 13.4238C79.7865 12.7005 80.1374 12.0739 80.5957 11.5439C81.0612 11.0068 81.627 10.5915 82.293 10.2979C82.9661 9.99707 83.7253 9.84668 84.5703 9.84668C85.4225 9.84668 86.1816 9.99707 86.8477 10.2979C87.5208 10.5915 88.0902 11.0068 88.5557 11.5439C89.0212 12.0739 89.3757 12.7005 89.6191 13.4238C89.8626 14.14 89.9844 14.917 89.9844 15.7549V16.002C89.9844 16.8398 89.8626 17.6169 89.6191 18.333C89.3757 19.0492 89.0212 19.6758 88.5557 20.2129C88.0902 20.7428 87.5244 21.1582 86.8584 21.459C86.1924 21.7526 85.4368 21.8994 84.5918 21.8994C83.7396 21.8994 82.9769 21.7526 82.3037 21.459C81.6377 21.1582 81.0719 20.7428 80.6064 20.2129C80.141 19.6758 79.7865 19.0492 79.543 18.333C79.2995 17.6169 79.1777 16.8398 79.1777 16.002ZM81.7666 15.7549V16.002C81.7666 16.5247 81.8203 17.0189 81.9277 17.4844C82.0352 17.9499 82.2035 18.3581 82.4326 18.709C82.6618 19.0599 82.9554 19.3356 83.3135 19.5361C83.6715 19.7367 84.0977 19.8369 84.5918 19.8369C85.0716 19.8369 85.487 19.7367 85.8379 19.5361C86.196 19.3356 86.4896 19.0599 86.7188 18.709C86.9479 18.3581 87.1162 17.9499 87.2236 17.4844C87.3382 17.0189 87.3955 16.5247 87.3955 16.002V15.7549C87.3955 15.2393 87.3382 14.7523 87.2236 14.2939C87.1162 13.8285 86.9443 13.4167 86.708 13.0586C86.4788 12.7005 86.1852 12.4212 85.8271 12.2207C85.4762 12.013 85.0573 11.9092 84.5703 11.9092C84.0833 11.9092 83.6608 12.013 83.3027 12.2207C82.9518 12.4212 82.6618 12.7005 82.4326 13.0586C82.2035 13.4167 82.0352 13.8285 81.9277 14.2939C81.8203 14.7523 81.7666 15.2393 81.7666 15.7549ZM99.5986 10.0615H101.951V21.3623C101.951 22.4079 101.729 23.2959 101.285 24.0264C100.841 24.7568 100.222 25.3118 99.4268 25.6914C98.6318 26.0781 97.7116 26.2715 96.666 26.2715C96.222 26.2715 95.7279 26.207 95.1836 26.0781C94.6465 25.9492 94.1237 25.7415 93.6152 25.4551C93.1139 25.1758 92.695 24.807 92.3584 24.3486L93.5723 22.8232C93.9876 23.3174 94.446 23.679 94.9473 23.9082C95.4486 24.1374 95.9749 24.252 96.5264 24.252C97.1208 24.252 97.6257 24.141 98.041 23.9189C98.4635 23.7041 98.7894 23.3854 99.0186 22.9629C99.2477 22.5404 99.3623 22.0247 99.3623 21.416V12.6934L99.5986 10.0615ZM91.7031 16.002V15.7764C91.7031 14.8955 91.8105 14.0934 92.0254 13.3701C92.2402 12.6396 92.5482 12.013 92.9492 11.4902C93.3503 10.9603 93.8372 10.5557 94.4102 10.2764C94.9831 9.98991 95.6312 9.84668 96.3545 9.84668C97.1064 9.84668 97.7474 9.98275 98.2773 10.2549C98.8145 10.527 99.262 10.9173 99.6201 11.4258C99.9782 11.9271 100.257 12.5286 100.458 13.2305C100.666 13.9251 100.82 14.6986 100.92 15.5508V16.2705C100.827 17.1012 100.669 17.8604 100.447 18.5479C100.225 19.2354 99.9316 19.8298 99.5664 20.3311C99.2012 20.8324 98.75 21.2191 98.2129 21.4912C97.6829 21.7633 97.0563 21.8994 96.333 21.8994C95.624 21.8994 94.9831 21.7526 94.4102 21.459C93.8444 21.1654 93.3574 20.7536 92.9492 20.2236C92.5482 19.6937 92.2402 19.0706 92.0254 18.3545C91.8105 17.6312 91.7031 16.847 91.7031 16.002ZM94.292 15.7764V16.002C94.292 16.5319 94.3421 17.026 94.4424 17.4844C94.5498 17.9427 94.7109 18.3473 94.9258 18.6982C95.1478 19.042 95.4271 19.3141 95.7637 19.5146C96.1074 19.708 96.512 19.8047 96.9775 19.8047C97.5863 19.8047 98.084 19.6758 98.4707 19.418C98.8646 19.1602 99.1654 18.8128 99.373 18.376C99.5879 17.932 99.7383 17.4378 99.8242 16.8936V14.9492C99.7812 14.5267 99.6917 14.1328 99.5557 13.7676C99.4268 13.4023 99.2513 13.0837 99.0293 12.8115C98.8073 12.5322 98.528 12.3174 98.1914 12.167C97.8548 12.0094 97.4574 11.9307 96.999 11.9307C96.5335 11.9307 96.1289 12.0309 95.7852 12.2314C95.4414 12.432 95.1585 12.7077 94.9365 13.0586C94.7217 13.4095 94.5605 13.8177 94.4531 14.2832C94.3457 14.7487 94.292 15.2464 94.292 15.7764ZM104.143 16.002V15.7549C104.143 14.917 104.264 14.14 104.508 13.4238C104.751 12.7005 105.102 12.0739 105.561 11.5439C106.026 11.0068 106.592 10.5915 107.258 10.2979C107.931 9.99707 108.69 9.84668 109.535 9.84668C110.387 9.84668 111.146 9.99707 111.812 10.2979C112.486 10.5915 113.055 11.0068 113.521 11.5439C113.986 12.0739 114.34 12.7005 114.584 13.4238C114.827 14.14 114.949 14.917 114.949 15.7549V16.002C114.949 16.8398 114.827 17.6169 114.584 18.333C114.34 19.0492 113.986 19.6758 113.521 20.2129C113.055 20.7428 112.489 21.1582 111.823 21.459C111.157 21.7526 110.402 21.8994 109.557 21.8994C108.704 21.8994 107.942 21.7526 107.269 21.459C106.603 21.1582 106.037 20.7428 105.571 20.2129C105.106 19.6758 104.751 19.0492 104.508 18.333C104.264 17.6169 104.143 16.8398 104.143 16.002ZM106.731 15.7549V16.002C106.731 16.5247 106.785 17.0189 106.893 17.4844C107 17.9499 107.168 18.3581 107.397 18.709C107.627 19.0599 107.92 19.3356 108.278 19.5361C108.636 19.7367 109.062 19.8369 109.557 19.8369C110.036 19.8369 110.452 19.7367 110.803 19.5361C111.161 19.3356 111.454 19.0599 111.684 18.709C111.913 18.3581 112.081 17.9499 112.188 17.4844C112.303 17.0189 112.36 16.5247 112.36 16.002V15.7549C112.36 15.2393 112.303 14.7523 112.188 14.2939C112.081 13.8285 111.909 13.4167 111.673 13.0586C111.444 12.7005 111.15 12.4212 110.792 12.2207C110.441 12.013 110.022 11.9092 109.535 11.9092C109.048 11.9092 108.626 12.013 108.268 12.2207C107.917 12.4212 107.627 12.7005 107.397 13.0586C107.168 13.4167 107 13.8285 106.893 14.2939C106.785 14.7523 106.731 15.2393 106.731 15.7549Z" fill="white"/>
<defs>
<linearGradient id="paint0_linear_5400_1071" x1="-0.5" y1="3.68457" x2="-0.5" y2="23.6846" gradientUnits="userSpaceOnUse">
<stop stop-color="#EC008C"/>
<stop offset="1" stop-color="#FC6767"/>
</linearGradient>
<linearGradient id="paint1_linear_5400_1071" x1="9.5" y1="5.68457" x2="9.5" y2="21.6846" gradientUnits="userSpaceOnUse">
<stop stop-color="#E65C00"/>
<stop offset="1" stop-color="#F9D423"/>
</linearGradient>
<linearGradient id="paint2_linear_5400_1071" x1="19.5" y1="7.68457" x2="19.5" y2="19.6846" gradientUnits="userSpaceOnUse">
<stop stop-color="#00D2FF"/>
<stop offset="1" stop-color="#3A7BD5"/>
</linearGradient>
</defs>
</svg>
