<svg width="24" height="25" viewBox="0 0 24 25" fill="none" xmlns="http://www.w3.org/2000/svg">
<path d="M22.65 15.0746L12 22.8146L1.34999 15.0746C1.20722 14.9696 1.10131 14.8221 1.04743 14.6533C0.993542 14.4844 0.99444 14.3029 1.04999 14.1346L2.26999 10.3546L4.70999 2.84456C4.73366 2.78337 4.77133 2.72857 4.81999 2.68456C4.89923 2.61218 5.00267 2.57205 5.10999 2.57205C5.21731 2.57205 5.32075 2.61218 5.39999 2.68456C5.45137 2.73423 5.48924 2.79618 5.50999 2.86456L7.94999 10.3546H16.05L18.49 2.84456C18.5137 2.78337 18.5513 2.72857 18.6 2.68456C18.6792 2.61218 18.7827 2.57205 18.89 2.57205C18.9973 2.57205 19.1008 2.61218 19.18 2.68456C19.2314 2.73423 19.2692 2.79618 19.29 2.86456L21.73 10.3746L23 14.1346C23.0505 14.308 23.0437 14.4932 22.9807 14.6625C22.9176 14.8319 22.8017 14.9764 22.65 15.0746V15.0746Z" stroke="white" stroke-linecap="round" stroke-linejoin="round"/>
</svg>
