<svg width="515" height="545" viewBox="0 0 515 545" fill="none" xmlns="http://www.w3.org/2000/svg">
<path fill-rule="evenodd" clip-rule="evenodd" d="M228.342 85.1897C267.795 98.1644 307.467 99.1456 346.753 112.62C405.226 132.675 501.319 122.35 513.427 182.969C526.184 246.843 424.173 272.738 389.781 328.054C367.663 363.628 380.415 414.572 350.931 444.329C319.385 476.168 271.398 478.54 228.342 490.991C165.093 509.282 96.226 569.214 40.5358 534.091C-14.0976 499.636 1.96588 413.42 2.94027 348.836C3.65834 301.241 40.7646 263.517 45.3329 216.136C52.0907 146.045 -21.685 51.263 35.5816 10.2877C93.0489 -30.8313 161.215 63.1145 228.342 85.1897Z" fill="#183953"/>
</svg>
