<svg width="64" height="64" viewBox="0 0 64 64" fill="none" xmlns="http://www.w3.org/2000/svg">
<rect width="64" height="64" rx="24" fill="#DC0155"/>
<path d="M18.6667 30.6667H26.6667C27.0203 30.6667 27.3594 30.5262 27.6095 30.2761C27.8595 30.0261 28 29.687 28 29.3333V21.3333C28 20.9797 27.8595 20.6406 27.6095 20.3905C27.3594 20.1405 27.0203 20 26.6667 20H18.6667C18.313 20 17.9739 20.1405 17.7239 20.3905C17.4738 20.6406 17.3333 20.9797 17.3333 21.3333V29.3333C17.3333 29.687 17.4738 30.0261 17.7239 30.2761C17.9739 30.5262 18.313 30.6667 18.6667 30.6667ZM20 22.6667H25.3333V28H20V22.6667ZM45.3333 24H32C31.6464 24 31.3072 24.1405 31.0572 24.3905C30.8071 24.6406 30.6667 24.9797 30.6667 25.3333C30.6667 25.687 30.8071 26.0261 31.0572 26.2761C31.3072 26.5262 31.6464 26.6667 32 26.6667H45.3333C45.687 26.6667 46.0261 26.5262 46.2761 26.2761C46.5262 26.0261 46.6667 25.687 46.6667 25.3333C46.6667 24.9797 46.5262 24.6406 46.2761 24.3905C46.0261 24.1405 45.687 24 45.3333 24ZM45.3333 37.3333H32C31.6464 37.3333 31.3072 37.4738 31.0572 37.7239C30.8071 37.9739 30.6667 38.313 30.6667 38.6667C30.6667 39.0203 30.8071 39.3594 31.0572 39.6095C31.3072 39.8595 31.6464 40 32 40H45.3333C45.687 40 46.0261 39.8595 46.2761 39.6095C46.5262 39.3594 46.6667 39.0203 46.6667 38.6667C46.6667 38.313 46.5262 37.9739 46.2761 37.7239C46.0261 37.4738 45.687 37.3333 45.3333 37.3333ZM21.256 42.6667H21.272C21.6216 42.6655 21.9568 42.5272 22.2053 42.2813L27.6 36.948C27.7384 36.8289 27.8509 36.6826 27.9304 36.5182C28.01 36.3538 28.0549 36.1749 28.0625 35.9924C28.07 35.81 28.04 35.6279 27.9742 35.4575C27.9085 35.2872 27.8085 35.1321 27.6804 35.002C27.5523 34.8718 27.3988 34.7694 27.2295 34.701C27.0601 34.6327 26.8786 34.5998 26.696 34.6045C26.5135 34.6092 26.3338 34.6513 26.1682 34.7283C26.0026 34.8053 25.8546 34.9155 25.7333 35.052L21.2947 39.4373L19.6253 37.704C19.5036 37.5781 19.3582 37.4774 19.1975 37.4077C19.0368 37.338 18.864 37.3006 18.6888 37.2977C18.3351 37.2919 17.9936 37.4267 17.7393 37.6727C17.4851 37.9186 17.3389 38.2555 17.3331 38.6092C17.3272 38.9629 17.4621 39.3044 17.708 39.5587L20.3133 42.2667C20.4363 42.3922 20.583 42.4921 20.7447 42.5608C20.9065 42.6294 21.0803 42.6654 21.256 42.6667Z" fill="#F4F3F8"/>
</svg>
