<svg width="176" height="80" viewBox="0 0 176 80" fill="none" xmlns="http://www.w3.org/2000/svg">
<g opacity="0.5">
<circle cx="172" cy="4" r="4" transform="rotate(90 172 4)" fill="#183953"/>
<circle cx="148" cy="4" r="4" transform="rotate(90 148 4)" fill="#183953"/>
<circle cx="124" cy="4" r="4" transform="rotate(90 124 4)" fill="#183953"/>
<circle cx="100" cy="4" r="4" transform="rotate(90 100 4)" fill="#183953"/>
<circle cx="76" cy="4" r="4" transform="rotate(90 76 4)" fill="#183953"/>
<circle cx="52" cy="4" r="4" transform="rotate(90 52 4)" fill="#183953"/>
<circle cx="28" cy="4" r="4" transform="rotate(90 28 4)" fill="#183953"/>
<circle cx="4" cy="4" r="4" transform="rotate(90 4 4)" fill="#183953"/>
<circle cx="172" cy="28" r="4" transform="rotate(90 172 28)" fill="#183953"/>
<circle cx="148" cy="28" r="4" transform="rotate(90 148 28)" fill="#183953"/>
<circle cx="124" cy="28" r="4" transform="rotate(90 124 28)" fill="#183953"/>
<circle cx="100" cy="28" r="4" transform="rotate(90 100 28)" fill="#183953"/>
<circle cx="76" cy="28" r="4" transform="rotate(90 76 28)" fill="#183953"/>
<circle cx="52" cy="28" r="4" transform="rotate(90 52 28)" fill="#183953"/>
<circle cx="28" cy="28" r="4" transform="rotate(90 28 28)" fill="#183953"/>
<circle cx="4" cy="28" r="4" transform="rotate(90 4 28)" fill="#183953"/>
<circle cx="172" cy="52" r="4" transform="rotate(90 172 52)" fill="#183953"/>
<circle cx="148" cy="52" r="4" transform="rotate(90 148 52)" fill="#183953"/>
<circle cx="124" cy="52" r="4" transform="rotate(90 124 52)" fill="#183953"/>
<circle cx="100" cy="52" r="4" transform="rotate(90 100 52)" fill="#183953"/>
<circle cx="76" cy="52" r="4" transform="rotate(90 76 52)" fill="#183953"/>
<circle cx="52" cy="52" r="4" transform="rotate(90 52 52)" fill="#183953"/>
<circle cx="28" cy="52" r="4" transform="rotate(90 28 52)" fill="#183953"/>
<circle cx="4" cy="52" r="4" transform="rotate(90 4 52)" fill="#183953"/>
<circle cx="172" cy="76" r="4" transform="rotate(90 172 76)" fill="#183953"/>
<circle cx="148" cy="76" r="4" transform="rotate(90 148 76)" fill="#183953"/>
<circle cx="124" cy="76" r="4" transform="rotate(90 124 76)" fill="#183953"/>
<circle cx="100" cy="76" r="4" transform="rotate(90 100 76)" fill="#183953"/>
<circle cx="76" cy="76" r="4" transform="rotate(90 76 76)" fill="#183953"/>
<circle cx="52" cy="76" r="4" transform="rotate(90 52 76)" fill="#183953"/>
<circle cx="28" cy="76" r="4" transform="rotate(90 28 76)" fill="#183953"/>
<circle cx="4" cy="76" r="4" transform="rotate(90 4 76)" fill="#183953"/>
</g>
</svg>
