<svg width="64" height="64" viewBox="0 0 64 64" fill="none" xmlns="http://www.w3.org/2000/svg">
<rect width="64" height="64" rx="24" fill="#DC0155"/>
<path d="M39.9999 25.5C39.9999 21.09 36.4099 17.5 31.9999 17.5C27.5899 17.5 23.9999 21.09 23.9999 25.5C23.9999 29.91 27.5899 33.5 31.9999 33.5C36.4099 33.5 39.9999 29.91 39.9999 25.5ZM26.9999 25.5C26.9999 22.74 29.2399 20.5 31.9999 20.5C34.7599 20.5 36.9999 22.74 36.9999 25.5C36.9999 28.26 34.7599 30.5 31.9999 30.5C29.2399 30.5 26.9999 28.26 26.9999 25.5ZM34.3999 35.5H29.5999C24.3599 35.5 20.0999 39.76 20.0999 45C20.0999 45.83 20.7699 46.5 21.5999 46.5H42.3999C43.2299 46.5 43.8999 45.83 43.8999 45C43.8999 39.76 39.6399 35.5 34.3999 35.5ZM23.2699 43.5C23.9499 40.64 26.5299 38.5 29.5999 38.5H34.3999C37.4699 38.5 40.0499 40.64 40.7299 43.5H23.2699Z" fill="#F4F3F8"/>
</svg>
