<svg width="80" height="176" viewBox="0 0 80 176" fill="none" xmlns="http://www.w3.org/2000/svg">
<g opacity="0.5">
<circle cx="4" cy="4" r="4" fill="#183953"/>
<circle cx="4" cy="28" r="4" fill="#183953"/>
<circle cx="4" cy="52" r="4" fill="#183953"/>
<circle cx="4" cy="76" r="4" fill="#183953"/>
<circle cx="4" cy="100" r="4" fill="#183953"/>
<circle cx="4" cy="124" r="4" fill="#183953"/>
<circle cx="4" cy="148" r="4" fill="#183953"/>
<circle cx="4" cy="172" r="4" fill="#183953"/>
<circle cx="28" cy="4" r="4" fill="#183953"/>
<circle cx="28" cy="28" r="4" fill="#183953"/>
<circle cx="28" cy="52" r="4" fill="#183953"/>
<circle cx="28" cy="76" r="4" fill="#183953"/>
<circle cx="28" cy="100" r="4" fill="#183953"/>
<circle cx="28" cy="124" r="4" fill="#183953"/>
<circle cx="28" cy="148" r="4" fill="#183953"/>
<circle cx="28" cy="172" r="4" fill="#183953"/>
<circle cx="52" cy="4" r="4" fill="#183953"/>
<circle cx="52" cy="28" r="4" fill="#183953"/>
<circle cx="52" cy="52" r="4" fill="#183953"/>
<circle cx="52" cy="76" r="4" fill="#183953"/>
<circle cx="52" cy="100" r="4" fill="#183953"/>
<circle cx="52" cy="124" r="4" fill="#183953"/>
<circle cx="52" cy="148" r="4" fill="#183953"/>
<circle cx="52" cy="172" r="4" fill="#183953"/>
<circle cx="76" cy="4" r="4" fill="#183953"/>
<circle cx="76" cy="28" r="4" fill="#183953"/>
<circle cx="76" cy="52" r="4" fill="#183953"/>
<circle cx="76" cy="76" r="4" fill="#183953"/>
<circle cx="76" cy="100" r="4" fill="#183953"/>
<circle cx="76" cy="124" r="4" fill="#183953"/>
<circle cx="76" cy="148" r="4" fill="#183953"/>
<circle cx="76" cy="172" r="4" fill="#183953"/>
</g>
</svg>
