<svg width="20" height="20" viewBox="0 0 20 20" fill="none" xmlns="http://www.w3.org/2000/svg">
<path d="M14.2084 16.9C13.3918 17.6917 12.5001 17.5667 11.6418 17.1917C10.7334 16.8083 9.90012 16.7917 8.94178 17.1917C7.74178 17.7083 7.10845 17.5583 6.39178 16.9C2.32512 12.7083 2.92512 6.325 7.54178 6.09167C8.66678 6.15 9.45012 6.70833 10.1084 6.75833C11.0918 6.55833 12.0334 5.98333 13.0834 6.05833C14.3418 6.15833 15.2918 6.65833 15.9168 7.55833C13.3168 9.11667 13.9334 12.5417 16.3168 13.5C15.8418 14.75 15.2251 15.9917 14.2001 16.9083L14.2084 16.9ZM10.0251 6.04167C9.90012 4.18333 11.4085 2.65 13.1418 2.5C13.3834 4.65 11.1918 6.25 10.0251 6.04167Z" fill="#040505"/>
</svg>
