<svg width="40" height="40" viewBox="0 0 40 40" fill="none" xmlns="http://www.w3.org/2000/svg">
<path opacity="0.6" d="M23.3333 26.6667C23.3333 29.6167 22.05 32.2833 20 34.1C18.2333 35.7 15.9 36.6667 13.3333 36.6667C7.81665 36.6667 3.33331 32.1833 3.33331 26.6667C3.33331 22.0667 6.46665 18.1667 10.7 17.0167C11.85 19.9167 14.3166 22.15 17.3666 22.9833C18.2 23.2167 19.0833 23.3333 20 23.3333C20.9166 23.3333 21.8 23.2167 22.6333 22.9833C23.0833 24.1167 23.3333 25.3667 23.3333 26.6667Z" fill="#87DB1C"/>
<path d="M30 13.3333C30 14.6333 29.75 15.8833 29.3 17.0167C28.15 19.9167 25.6833 22.15 22.6333 22.9833C21.8 23.2167 20.9167 23.3333 20 23.3333C19.0833 23.3333 18.2 23.2167 17.3667 22.9833C14.3167 22.15 11.85 19.9167 10.7 17.0167C10.25 15.8833 10 14.6333 10 13.3333C10 7.81668 14.4833 3.33334 20 3.33334C25.5167 3.33334 30 7.81668 30 13.3333Z" fill="#87DB1C"/>
<path opacity="0.4" d="M36.6667 26.6667C36.6667 32.1833 32.1833 36.6667 26.6667 36.6667C24.1 36.6667 21.7667 35.7 20 34.1C22.05 32.2833 23.3333 29.6167 23.3333 26.6667C23.3333 25.3667 23.0833 24.1167 22.6333 22.9833C25.6833 22.15 28.15 19.9167 29.3 17.0167C33.5333 18.1667 36.6667 22.0667 36.6667 26.6667Z" fill="#87DB1C"/>
</svg>
