<svg width="20" height="20" viewBox="0 0 20 20" fill="none" xmlns="http://www.w3.org/2000/svg">
<path fill-rule="evenodd" clip-rule="evenodd" d="M1.5 9C1.5 4.85786 4.85786 1.5 9 1.5C13.1421 1.5 16.5 4.85786 16.5 9C16.5 13.1421 13.1421 16.5 9 16.5C4.85786 16.5 1.5 13.1421 1.5 9ZM9 0.5C4.30558 0.5 0.5 4.30558 0.5 9C0.5 13.6944 4.30558 17.5 9 17.5C11.2564 17.5 13.3074 16.6208 14.8292 15.1863L18.9964 19.3535C19.1917 19.5488 19.5083 19.5488 19.7036 19.3535C19.8988 19.1583 19.8988 18.8417 19.7036 18.6464L15.5158 14.4587C16.7543 12.982 17.5 11.0781 17.5 9C17.5 4.30558 13.6944 0.5 9 0.5Z" fill="black"/>
</svg>
